<?xml version="1.0" encoding="UTF-8"?>
<svg version="1.1" xmlns="http://www.w3.org/2000/svg" width="1667" height="747">
<path d="M0 0 C1.17955261 0.00432037 2.35910522 0.00864075 3.57440186 0.01309204 C21.67358511 0.09065079 39.45586664 0.64220552 57.375 3.375 C58.52887207 3.54660645 59.68274414 3.71821289 60.87158203 3.89501953 C92.00068153 8.65954728 121.80609913 17.13916464 150.5625 29.9375 C151.75601074 30.46746582 152.94952148 30.99743164 154.17919922 31.54345703 C160.71491526 34.51357179 160.71491526 34.51357179 162.33914185 35.35951233 C164.51288969 36.47819619 164.51288969 36.47819619 167.42330933 37.59739685 C170.94126619 39.22081005 173.56092161 40.70082411 176.375 43.375 C178.04125341 48.49247461 177.781107 53.41638924 177.546875 58.71484375 C177.52446641 60.20692595 177.50739758 61.69909703 177.49542236 63.19129944 C177.44980176 67.10148986 177.3321493 71.00624937 177.19897461 74.91430664 C177.07575686 78.90892034 177.0213168 82.90442059 176.9609375 86.90039062 C176.83259805 94.72772529 176.62808344 102.55059922 176.375 110.375 C173.48599243 110.49108887 173.48599243 110.49108887 170.375 110.375 C168.59912109 108.51757812 168.59912109 108.51757812 167.1484375 105.90625 C166.32255127 104.47236938 166.32255127 104.47236938 165.47998047 103.00952148 C164.90908691 101.97512939 164.33819336 100.9407373 163.75 99.875 C162.51668567 97.7476553 161.27704631 95.6239655 160.03125 93.50390625 C159.41636719 92.45605957 158.80148437 91.40821289 158.16796875 90.32861328 C154.09629565 83.62121933 149.30376257 77.46790809 144.375 71.375 C143.88290039 70.76333984 143.39080078 70.15167969 142.88378906 69.52148438 C119.63289302 40.87008743 89.91731554 24.00141869 53.8125 16.5625 C52.39783447 16.2699231 52.39783447 16.2699231 50.95458984 15.97143555 C34.49584294 12.82593064 17.84719674 11.96274055 1.125 12 C0.23723877 12.00021149 -0.65052246 12.00042297 -1.56518555 12.00064087 C-15.90118399 12.0345553 -29.64989323 12.95136808 -43.625 16.375 C-44.75687744 16.63990234 -44.75687744 16.63990234 -45.91162109 16.91015625 C-76.76580534 24.32669731 -104.01202545 41.50242298 -126.625 63.375 C-127.1195166 63.84373535 -127.6140332 64.3124707 -128.12353516 64.79541016 C-177.89893301 112.01412625 -202.67530801 187.28394676 -204.69351196 254.66229248 C-204.83727013 261.06617971 -204.87048481 267.46967536 -204.875 273.875 C-204.87651062 275.36583099 -204.87651062 275.36583099 -204.87805176 276.88677979 C-204.8666542 293.58051747 -204.03562299 309.83639508 -201.625 326.375 C-201.49109863 327.34840332 -201.35719727 328.32180664 -201.21923828 329.32470703 C-192.160016 393.79342708 -161.59933285 459.31289147 -108.9375 499.375 C-64.18835646 532.68703051 -11.97644114 540.9547825 42.40625 533.30859375 C70.85546289 529.00694681 102.68652662 521.49614229 124.375 501.375 C125.014375 500.81425781 125.65375 500.25351562 126.3125 499.67578125 C135.56693121 491.11942136 140.09235238 480.3321905 140.64614868 467.80703735 C140.79217872 462.30501929 140.76609323 456.80416285 140.73828125 451.30078125 C140.737761 449.24789938 140.73828507 447.19501701 140.73979187 445.14213562 C140.7397025 440.84622722 140.72935551 436.55050778 140.71118164 432.25463867 C140.68867997 426.82416933 140.68810623 421.39397717 140.69443321 415.96347427 C143.54418337 367.07751023 143.54418337 367.07751023 126.59765625 323.32421875 C116.33054114 313.51901884 102.81261965 311.70313425 89.375 309.375 C89.375 307.725 89.375 306.075 89.375 304.375 C129.305 304.375 169.235 304.375 210.375 304.375 C210.375 306.025 210.375 307.675 210.375 309.375 C209.69953125 309.64054687 209.0240625 309.90609375 208.328125 310.1796875 C206.99007812 310.70949219 206.99007812 310.70949219 205.625 311.25 C204.74328125 311.59804688 203.8615625 311.94609375 202.953125 312.3046875 C201.67695312 312.83449219 201.67695312 312.83449219 200.375 313.375 C199.64796875 313.66632813 198.9209375 313.95765625 198.171875 314.2578125 C195.89428857 315.67387711 195.38129544 316.91566809 194.375 319.375 C194.05660156 320.00535156 193.73820312 320.63570312 193.41015625 321.28515625 C188.2452602 332.71430373 187.32419629 345.79022771 186.77539062 358.18066406 C186.71296803 359.58518011 186.71296803 359.58518011 186.64928436 361.01807022 C186.20394416 372.5896701 186.43073412 384.15466777 186.60368347 395.73009491 C186.7111414 403.4112819 186.73545223 411.09348979 186.77203274 418.77527952 C186.81100849 426.85015323 186.87811772 434.9224765 187.02978516 442.99609375 C187.15131505 449.4747723 187.21234802 455.95085366 187.20286703 462.43071008 C187.20005855 465.84149838 187.22652276 469.24601132 187.32704163 472.65544891 C187.85423944 493.26017003 187.85423944 493.26017003 183.70614052 498.47169685 C179.70094561 501.86355437 175.3012791 503.90376866 170.38254356 505.64248371 C167.7218281 506.6133306 165.3336429 507.95483914 162.88671875 509.37109375 C89.19833019 547.24081721 -3.61490289 561.63379299 -83.625 536.375 C-128.17074098 521.98657579 -168.75999046 495.57053619 -197.625 458.375 C-198.388125 457.44042969 -199.15125 456.50585938 -199.9375 455.54296875 C-240.25493191 405.21079014 -256.82790903 339.38963945 -256.875 275.875 C-256.87600708 274.92846558 -256.87701416 273.98193115 -256.87805176 273.00671387 C-256.8663092 256.60649865 -255.97862788 240.62467005 -253.625 224.375 C-253.48578125 223.37742676 -253.3465625 222.37985352 -253.203125 221.35205078 C-246.27336198 173.02818248 -227.2649196 126.4541932 -196.625 88.375 C-196.2120166 87.85760254 -195.7990332 87.34020508 -195.37353516 86.80712891 C-183.72954009 72.31191149 -170.61229364 59.37827516 -155.625 48.375 C-154.4960548 47.52739563 -153.36714857 46.67973934 -152.23828125 45.83203125 C-107.98557437 13.01798052 -54.47370553 -0.38019703 0 0 Z " fill="#000000" transform="translate(256.625,198.625)"/>
<path d="M0 0 C1.134375 0.020625 2.26875 0.04125 3.4375 0.0625 C12.0963993 22.59724164 20.41094218 45.25561528 28.71791077 67.92189026 C33.38042785 80.64089572 38.06504528 93.35174606 42.75 106.0625 C43.63591864 108.46646631 44.52182353 110.87043769 45.40771484 113.27441406 C47.19309963 118.11917638 48.97859623 122.96389746 50.76416016 127.80859375 C54.71974395 138.54139308 58.67383195 149.27474349 62.62802124 160.00805664 C64.81445179 165.94289407 67.00098092 171.87769518 69.1875 177.8125 C70.06250047 180.18749983 70.93750047 182.56249983 71.8125 184.9375 C72.245625 186.113125 72.67875 187.28875 73.125 188.5 C88.4375 230.0625 103.75 271.625 119.0625 313.1875 C119.49558472 314.36301422 119.92866943 315.53852844 120.37487793 316.74966431 C121.2502886 319.1257819 122.1256955 321.50190087 123.00109863 323.87802124 C125.18228448 329.79843351 127.36353491 335.71882198 129.54492188 341.63916016 C136.65981905 360.94952625 136.65981905 360.94952625 140.19140625 370.54199219 C140.42046347 371.16415524 140.64952068 371.7863183 140.88551903 372.42733479 C142.03997252 375.56309181 143.19439007 378.69886207 144.3487854 381.8346405 C147.8728125 391.40631061 151.40138154 400.97630114 154.93148804 410.54573059 C157.08418506 416.38351319 159.23049112 422.22354721 161.36686707 428.06732178 C169.50414211 450.32138723 177.81088463 472.43788875 188.625 493.5625 C189.087854 494.47612305 189.55070801 495.38974609 190.02758789 496.33105469 C198.30525344 512.03463653 209.5395054 523.91229347 226.5859375 529.28515625 C229.88345817 530.18406942 233.04659949 530.68573328 236.4375 531.0625 C237.4375 532.0625 237.4375 532.0625 237.4375 537.0625 C187.6075 537.0625 137.7775 537.0625 86.4375 537.0625 C86.4375 532.0625 86.4375 532.0625 87.4375 531.0625 C89.70433961 530.76005509 91.97639442 530.49648004 94.25 530.25 C105.51771949 528.85948691 118.78115773 525.95103301 126.3203125 516.76953125 C133.30712016 505.88428742 133.42277585 494.47416544 131.04898071 482.02493286 C127.60493785 466.84748485 122.05308396 452.3252041 116.6875 437.75 C115.75225628 435.19344317 114.81947345 432.63599007 113.88647461 430.07861328 C111.08320951 422.40175938 108.26126956 414.73183026 105.4375 407.0625 C104.58927391 404.7557266 103.7411265 402.44892427 102.89306641 400.14208984 C99.27559848 390.30633665 95.64865683 380.4741156 92.00390625 370.6484375 C91.72968338 369.90897385 91.45546051 369.16951019 91.17292786 368.40763855 C88.27993057 360.6187997 85.35494229 352.84234611 82.4375 345.0625 C18.0875 345.0625 -46.2625 345.0625 -112.5625 345.0625 C-118.1725 360.2425 -123.7825 375.4225 -129.5625 391.0625 C-131.1609375 395.38472656 -132.759375 399.70695312 -134.40625 404.16015625 C-158.01431067 458.03575867 -158.01431067 458.03575867 -156.88671875 513.76171875 C-152.46588612 521.44275244 -145.87216085 525.54448158 -137.515625 527.93359375 C-131.52852929 529.40225925 -125.63883282 530.42877499 -119.48828125 530.8515625 C-117.5625 531.0625 -117.5625 531.0625 -115.5625 532.0625 C-115.5625 533.7125 -115.5625 535.3625 -115.5625 537.0625 C-157.4725 537.0625 -199.3825 537.0625 -242.5625 537.0625 C-242.5625 535.4125 -242.5625 533.7625 -242.5625 532.0625 C-241.655 531.815 -240.7475 531.5675 -239.8125 531.3125 C-238.39537831 530.89738355 -236.97878577 530.48045954 -235.5625 530.0625 C-234.64339844 529.80597656 -233.72429687 529.54945313 -232.77734375 529.28515625 C-225.30214853 527.03777498 -219.66553027 523.89362029 -213.5625 519.0625 C-212.96050781 518.62421875 -212.35851563 518.1859375 -211.73828125 517.734375 C-172.43340159 487.31661265 -155.90148465 411.64460443 -139.67199707 367.28704834 C-135.18017925 355.01027998 -130.66230355 342.74317613 -126.14044189 330.47744751 C-124.81239187 326.87470665 -123.48496403 323.27173713 -122.15771484 319.66870117 C-116.46198649 304.20777883 -110.75476482 288.75113577 -105.03991699 273.29727173 C-99.03455493 257.05708959 -93.04632839 240.81062757 -87.0625 224.5625 C-80.65462096 207.16341297 -74.24156006 189.7662727 -67.8125 172.375 C-67.4676355 171.44209137 -67.122771 170.50918274 -66.76745605 169.54800415 C-64.02600368 162.13235139 -61.28377664 154.71698516 -58.54150391 147.30163574 C-56.13146191 140.78456208 -53.72174833 134.26736711 -51.3125 127.75 C-50.96795776 126.8179776 -50.62341553 125.8859552 -50.26843262 124.9256897 C-44.63734022 109.69141595 -39.01969665 94.45220779 -33.40649414 79.21133423 C-32.07271948 75.59024505 -30.73857719 71.96929156 -29.40429688 68.34838867 C-28.5247375 65.96142655 -27.6451802 63.57446366 -26.765625 61.1875 C-26.33306396 60.01363235 -25.90050293 58.83976471 -25.45483398 57.63032532 C-22.8757593 50.63027713 -20.29974243 43.62911285 -17.72607422 36.6270752 C-16.13208797 32.29187764 -14.53591184 27.95748866 -12.93920898 23.62329102 C-12.19227906 21.59419882 -11.44633656 19.56474285 -10.70141602 17.53491211 C-9.68366046 14.76192713 -8.6625647 11.99019516 -7.640625 9.21875 C-7.34065613 8.39882568 -7.04068726 7.57890137 -6.73162842 6.73413086 C-4.26916372 0.07489761 -4.26916372 0.07489761 0 0 Z M-16.5625 78.0625 C-16.77895676 78.66255356 -16.99541351 79.26260712 -17.21842957 79.88084412 C-20.05938054 87.75494649 -22.90363834 95.62785211 -25.75 103.5 C-26.10225018 104.47427067 -26.10225018 104.47427067 -26.46161652 105.46822357 C-33.54891293 125.06797117 -40.70796211 144.63968269 -47.9375 164.1875 C-55.91982524 185.77353009 -63.7439781 207.41255207 -71.50082397 229.08026123 C-79.50484693 251.43555631 -87.65587651 273.73342632 -95.9140625 295.99609375 C-96.54167229 297.69079803 -96.54167229 297.69079803 -97.18196106 299.41973877 C-97.95107164 301.49588437 -98.72181058 303.57142796 -99.49467468 305.6461792 C-102.00187426 312.41460246 -104.27677941 319.20533824 -106.5625 326.0625 C-46.5025 326.0625 13.5575 326.0625 75.4375 326.0625 C71.3479318 313.79379539 67.27310089 301.60721571 62.74438477 289.5065918 C60.54411845 283.61677566 58.35508818 277.72283459 56.16796875 271.828125 C55.78104355 270.78613449 55.39411835 269.74414398 54.99546814 268.670578 C50.62043624 256.87950231 46.30945161 245.06516547 42 233.25 C40.39876527 228.8618595 38.79715456 224.47385634 37.1953125 220.0859375 C36.79956528 219.00184601 36.40381805 217.91775452 35.99607849 216.80081177 C31.80363377 205.320184 27.59139589 193.8468494 23.375 182.375 C22.82440918 180.87691803 22.82440918 180.87691803 22.26269531 179.34857178 C20.4094681 174.30649388 18.55589578 169.26454294 16.70214844 164.22265625 C13.97004471 156.79147651 11.23930116 149.35979711 8.50947571 141.92778015 C6.58441274 136.68678708 4.65848906 131.44611495 2.73022461 126.20629883 C-0.55919744 117.26449259 -3.83842841 108.31965973 -7.06640625 99.35546875 C-7.82998814 97.242663 -8.59402077 95.13002079 -9.35818481 93.01742554 C-10.04153349 91.1206955 -10.71705967 89.22115287 -11.39233398 87.3215332 C-11.98703491 85.67737427 -11.98703491 85.67737427 -12.59375 84 C-12.92955078 83.06027344 -13.26535156 82.12054688 -13.61132812 81.15234375 C-14.37459681 78.89444529 -14.37459681 78.89444529 -16.5625 78.0625 Z " fill="#000000" transform="translate(1429.5625,200.9375)"/>
<path d="M0 0 C1.134375 0.020625 2.26875 0.04125 3.4375 0.0625 C12.0963993 22.59724164 20.41094218 45.25561528 28.71791077 67.92189026 C33.38042785 80.64089572 38.06504528 93.35174606 42.75 106.0625 C43.63591864 108.46646631 44.52182353 110.87043769 45.40771484 113.27441406 C47.19309963 118.11917638 48.97859623 122.96389746 50.76416016 127.80859375 C54.71974395 138.54139308 58.67383195 149.27474349 62.62802124 160.00805664 C64.81445179 165.94289407 67.00098092 171.87769518 69.1875 177.8125 C70.06250047 180.18749983 70.93750047 182.56249983 71.8125 184.9375 C72.245625 186.113125 72.67875 187.28875 73.125 188.5 C88.4375 230.0625 103.75 271.625 119.0625 313.1875 C119.49559479 314.3630394 119.92868958 315.5385788 120.37490845 316.7497406 C121.25022305 319.12560179 122.12552822 321.50146646 123.00082397 323.87733459 C125.18343335 329.80168685 127.36620469 335.72597932 129.54931641 341.65014648 C134.00266911 353.73547801 138.45304895 365.82189281 142.8984375 377.91015625 C147.67670344 390.90242853 152.4645357 403.89114587 157.26116943 416.87664795 C158.39214628 419.93966869 159.5216528 423.00322801 160.65087891 426.06689453 C176.07663331 473.1206353 176.07663331 473.1206353 202.4375 514.0625 C203.02015625 514.71089844 203.6028125 515.35929688 204.203125 516.02734375 C212.87756128 525.26835357 223.93366218 529.67318469 236.4375 531.0625 C237.4375 532.0625 237.4375 532.0625 237.4375 537.0625 C187.6075 537.0625 137.7775 537.0625 86.4375 537.0625 C86.4375 532.0625 86.4375 532.0625 87.4375 531.0625 C89.70433961 530.76005509 91.97639442 530.49648004 94.25 530.25 C105.51771949 528.85948691 118.78115773 525.95103301 126.3203125 516.76953125 C133.30756933 505.88358764 133.41687053 494.48318387 131.05200195 482.0329895 C127.7267854 467.33332452 122.39687828 453.2542268 117.19563293 439.14083099 C116.01398984 435.92895406 114.84209097 432.7135232 113.66894531 429.49853516 C111.3555134 423.16365717 109.03095517 416.83292136 106.70269775 410.503479 C105.20779982 406.43778068 103.71731407 402.37047638 102.22727966 398.30299377 C95.71281639 380.5249608 89.08587017 362.79148712 82.4375 345.0625 C18.0875 345.0625 -46.2625 345.0625 -112.5625 345.0625 C-118.1725 360.2425 -123.7825 375.4225 -129.5625 391.0625 C-131.1609375 395.38472656 -132.759375 399.70695312 -134.40625 404.16015625 C-157.29772672 457.0059226 -157.29772672 457.0059226 -157.66015625 511.88671875 C-153.96923564 519.20288522 -148.11031403 524.05936068 -140.5625 527.0625 C-133.63861431 529.13879696 -126.69427819 530.35622392 -119.48828125 530.8515625 C-117.5625 531.0625 -117.5625 531.0625 -115.5625 532.0625 C-115.5625 533.7125 -115.5625 535.3625 -115.5625 537.0625 C-157.4725 537.0625 -199.3825 537.0625 -242.5625 537.0625 C-242.5625 535.4125 -242.5625 533.7625 -242.5625 532.0625 C-241.655 531.815 -240.7475 531.5675 -239.8125 531.3125 C-238.39537831 530.89738355 -236.97878577 530.48045954 -235.5625 530.0625 C-234.64339844 529.80597656 -233.72429687 529.54945313 -232.77734375 529.28515625 C-225.30214853 527.03777498 -219.66553027 523.89362029 -213.5625 519.0625 C-212.96050781 518.62421875 -212.35851562 518.1859375 -211.73828125 517.734375 C-172.43340159 487.31661265 -155.90148465 411.64460443 -139.67199707 367.28704834 C-135.17981107 355.00927369 -130.66157052 342.74116214 -126.13934326 330.47442627 C-124.81461568 326.88073938 -123.49047416 323.28683706 -122.16650391 319.69287109 C-113.6426221 296.55588192 -105.0939068 273.42809392 -96.54150391 250.30163574 C-94.13146191 243.78456208 -91.72174833 237.26736711 -89.3125 230.75 C-88.79568665 229.3519664 -88.79568665 229.3519664 -88.26843262 227.9256897 C-81.73568744 210.2520979 -75.22174287 192.57159768 -68.71008301 174.89022827 C-62.49803858 158.02284499 -56.27561832 141.15935006 -50.04101562 124.30029297 C-44.48620347 109.27849381 -38.94548716 94.25153512 -33.41052246 79.22241211 C-32.07510592 75.59672538 -30.73928999 71.97118607 -29.40332031 68.34570312 C-28.52408694 65.95963601 -27.64485516 63.5735683 -26.765625 61.1875 C-26.33308411 60.01368774 -25.90054321 58.83987549 -25.45489502 57.63049316 C-22.87580116 50.6303886 -20.29976297 43.62916873 -17.72607422 36.6270752 C-16.13208797 32.29187764 -14.53591184 27.95748866 -12.93920898 23.62329102 C-12.19227906 21.59419882 -11.44633656 19.56474285 -10.70141602 17.53491211 C-9.68366046 14.76192713 -8.6625647 11.99019516 -7.640625 9.21875 C-7.34065613 8.39882568 -7.04068726 7.57890137 -6.73162842 6.73413086 C-4.26916372 0.07489761 -4.26916372 0.07489761 0 0 Z M-16.5625 78.0625 C-16.77895676 78.66255356 -16.99541351 79.26260712 -17.21842957 79.88084412 C-20.05938054 87.75494649 -22.90363834 95.62785211 -25.75 103.5 C-26.10225018 104.47427067 -26.10225018 104.47427067 -26.46161652 105.46822357 C-33.54891293 125.06797117 -40.70796211 144.63968269 -47.9375 164.1875 C-55.91982524 185.77353009 -63.7439781 207.41255207 -71.50082397 229.08026123 C-79.50484693 251.43555631 -87.65587651 273.73342632 -95.9140625 295.99609375 C-96.54167229 297.69079803 -96.54167229 297.69079803 -97.18196106 299.41973877 C-97.95107164 301.49588437 -98.72181058 303.57142796 -99.49467468 305.6461792 C-102.00187426 312.41460246 -104.27677941 319.20533824 -106.5625 326.0625 C-46.5025 326.0625 13.5575 326.0625 75.4375 326.0625 C71.3479318 313.79379539 67.27310089 301.60721571 62.74438477 289.5065918 C60.54411845 283.61677566 58.35508818 277.72283459 56.16796875 271.828125 C55.78104355 270.78613449 55.39411835 269.74414398 54.99546814 268.670578 C50.62043624 256.87950231 46.30945161 245.06516547 42 233.25 C40.39876527 228.8618595 38.79715456 224.47385634 37.1953125 220.0859375 C36.79956528 219.00184601 36.40381805 217.91775452 35.99607849 216.80081177 C31.80363377 205.320184 27.59139589 193.8468494 23.375 182.375 C22.82440918 180.87691803 22.82440918 180.87691803 22.26269531 179.34857178 C20.4094681 174.30649388 18.55589578 169.26454294 16.70214844 164.22265625 C13.97004471 156.79147651 11.23930116 149.35979711 8.50947571 141.92778015 C6.58441274 136.68678708 4.65848906 131.44611495 2.73022461 126.20629883 C-0.55919744 117.26449259 -3.83842841 108.31965973 -7.06640625 99.35546875 C-7.82998814 97.242663 -8.59402077 95.13002079 -9.35818481 93.01742554 C-10.04153349 91.1206955 -10.71705967 89.22115287 -11.39233398 87.3215332 C-11.98703491 85.67737427 -11.98703491 85.67737427 -12.59375 84 C-12.92955078 83.06027344 -13.26535156 82.12054688 -13.61132812 81.15234375 C-14.37459681 78.89444529 -14.37459681 78.89444529 -16.5625 78.0625 Z " fill="#000000" transform="translate(707.5625,200.9375)"/>
<path d="M0 0 C51.81 0 103.62 0 157 0 C157 1.98 157 3.96 157 6 C155.69546875 6.09796875 154.3909375 6.1959375 153.046875 6.296875 C138.82628681 7.46796624 124.68821672 8.98135893 114.25390625 19.8125 C108.40177336 27.05104841 105.98288059 35.07977046 104.3125 44.125 C104.13328003 45.08104126 104.13328003 45.08104126 103.95043945 46.05639648 C101.76394462 59.11678454 101.85219639 72.52389119 101.87301636 85.72947693 C101.87186095 87.35221694 101.87027063 88.97495668 101.86828911 90.59769589 C101.86415335 95.00955159 101.86616018 99.42138538 101.86927533 103.83324111 C101.8715529 108.60974558 101.86803815 113.38624649 101.86529541 118.16275024 C101.86086373 127.50155312 101.86180261 136.84034793 101.86470805 146.17915111 C101.86697246 153.77397131 101.86727011 161.36878926 101.86618423 168.9636097 C101.86595439 170.58907095 101.86595439 170.58907095 101.86571989 172.24736981 C101.86540015 174.44922884 101.86507593 176.65108786 101.8647473 178.85294688 C101.86190009 199.46914209 101.86516755 220.08533283 101.87054767 240.7015273 C101.87501438 258.36392734 101.87423939 276.02632079 101.86962891 293.6887207 C101.86426864 314.23290476 101.86217538 334.77708491 101.86524117 355.32126957 C101.8655597 357.51503789 101.86587407 359.70880622 101.86618423 361.90257454 C101.86633851 362.98175796 101.86649279 364.06094139 101.86665174 365.17282734 C101.86751258 372.75176437 101.86606333 380.3306989 101.86370468 387.90963554 C101.86089032 397.15556541 101.86167933 406.40148679 101.86698543 415.64741569 C101.86960051 420.35838255 101.87066497 425.06933531 101.86733627 429.78030205 C101.86432775 434.10376778 101.86604091 438.42720651 101.87131383 442.75066984 C101.87241877 444.30364636 101.87189033 445.85662522 101.86943804 447.40960019 C101.85795014 455.29790859 101.98895716 463.15673522 102.42981148 471.03399754 C102.46646172 471.71029496 102.50311195 472.38659239 102.5408728 473.08338368 C103.45511174 487.81821755 106.17333109 503.13687307 116.77734375 514.09765625 C127.79535668 523.52783604 143.16385168 524.50752207 157 526 C157 527.65 157 529.3 157 531 C105.19 531 53.38 531 0 531 C0 529.35 0 527.7 0 526 C0.90540527 525.89510254 0.90540527 525.89510254 1.82910156 525.78808594 C25.69728622 523.41391465 25.69728622 523.41391465 44.74609375 509.96875 C61.38861732 487.059341 56.15022931 450.30450028 56.13072467 423.40815842 C56.12843933 418.73666309 56.1319656 414.06517135 56.13470459 409.39367676 C56.13912793 400.26864845 56.13820122 391.14362842 56.13529195 382.0185998 C56.13302448 374.59647066 56.13273119 367.17434382 56.13381577 359.75221443 C56.13404561 358.16173662 56.13404561 358.16173662 56.13428011 356.53912793 C56.13459986 354.38446251 56.13492408 352.22979709 56.1352527 350.07513166 C56.13809739 329.918583 56.13483629 309.7620389 56.12945233 289.60549099 C56.12498457 272.34514601 56.12576197 255.08480775 56.13037109 237.82446289 C56.13573362 217.73362828 56.13782347 197.64279766 56.13475883 177.55196244 C56.13444031 175.40596489 56.13412594 173.25996735 56.13381577 171.1139698 C56.13366149 170.05836063 56.13350721 169.00275147 56.13334826 167.91515414 C56.13248819 160.50943383 56.13393496 153.10371606 56.13629532 145.69799614 C56.13911216 136.66229174 56.13831549 127.62659602 56.13301457 118.59089261 C56.13040298 113.98901442 56.12932896 109.38715065 56.13266373 104.7852726 C56.703908 74.49063268 56.703908 74.49063268 53.6875 44.4375 C53.55633789 43.69701416 53.42517578 42.95652832 53.29003906 42.19360352 C51.2769225 31.50273452 47.45194194 22.35475403 38.88671875 15.24609375 C27.51622579 7.62117494 13.32336941 6.38285544 0 6 C0 4.02 0 2.04 0 0 Z " fill="#000000" transform="translate(989,207)"/>
<path d="M0 0 C9.44376555 6.54500353 16.28044085 15.44474401 18.7734375 26.71484375 C20.06398628 41.46982145 18.34529252 53.92877648 8.7734375 65.71484375 C1.47469093 73.58744754 -8.772818 78.11448019 -19.37890625 78.96875 C-31.46612552 79.38278735 -42.17376313 77.00824714 -51.2265625 68.71484375 C-51.84144531 68.19019531 -52.45632813 67.66554688 -53.08984375 67.125 C-60.81695221 60.09283491 -64.79586421 50.56756118 -65.4453125 40.234375 C-65.76074198 27.13090884 -63.15199408 16.42326759 -54.22265625 6.484375 C-39.91543385 -7.15739519 -17.20122628 -9.9284271 0 0 Z M-48.015625 14.75390625 C-53.52455989 22.43384997 -56.39288529 31.25467001 -55.2265625 40.71484375 C-53.35646709 50.56401293 -48.58041129 58.98181026 -40.2265625 64.71484375 C-32.53100104 69.74592049 -24.07276675 69.59402593 -15.2265625 68.71484375 C-6.88914713 66.71339034 -0.06840049 60.79743304 4.6484375 53.77734375 C9.16725756 45.83517516 10.17151854 36.78435723 8.12109375 27.8828125 C5.38445421 19.48497013 1.06368295 12.34737253 -6.6640625 7.77734375 C-20.68446808 0.88595796 -37.36115366 2.61060049 -48.015625 14.75390625 Z " fill="#000000" transform="translate(640.2265625,5.28515625)"/>
<path d="M0 0 C9.04727116 6.6616723 15.2599585 14.79280352 18.09765625 25.8203125 C19.86732561 37.846841 18.93401504 50.64778621 11.66796875 60.796875 C10.63002172 62.02636337 9.56737372 63.2354462 8.48046875 64.421875 C7.95582031 65.03675781 7.43117188 65.65164062 6.890625 66.28515625 C-0.06942558 73.9330236 -9.46142942 77.85337857 -19.671875 78.67578125 C-33.35247477 79.14439848 -44.28449876 75.63003746 -54.51953125 66.421875 C-64.21597252 56.1800089 -66.00508833 44.72552473 -65.796875 31.2109375 C-65.33396114 19.40548244 -59.56257698 11.11389234 -51.26953125 3.171875 C-37.81657341 -8.41451339 -14.8775293 -9.31863851 0 0 Z M-46.51953125 12.421875 C-53.56340316 20.84117752 -56.05907402 28.1115679 -55.8203125 39.08203125 C-54.89402943 49.36738218 -50.19287733 56.65423535 -42.51953125 63.421875 C-34.28609942 68.80636848 -26.03464467 69.0946608 -16.51953125 68.421875 C-8.10876262 66.56029154 -1.51465409 61.87214467 3.2734375 54.7578125 C8.53973457 45.27597598 9.77426778 36.26130451 7.10546875 25.734375 C4.00726712 16.9596738 -1.53523072 10.67316528 -9.76953125 6.359375 C-22.19856037 0.65258222 -36.72063537 2.72441696 -46.51953125 12.421875 Z " fill="#000000" transform="translate(1108.51953125,5.578125)"/>
<path d="M0 0 C19.14 0 38.28 0 58 0 C58 3.3 58 6.6 58 10 C42.49 10 26.98 10 11 10 C11 18.58 11 27.16 11 36 C24.86 36 38.72 36 53 36 C53 38.97 53 41.94 53 45 C39.14 45 25.28 45 11 45 C11 53.91 11 62.82 11 72 C26.51 72 42.02 72 58 72 C58 74.97 58 77.94 58 81 C38.86 81 19.72 81 0 81 C0 54.27 0 27.54 0 0 Z " fill="#000000" transform="translate(898,1)"/>
<path d="M0 0 C4.81967318 3.55013781 7.85360369 7.68267978 10.75 12.875 C10.42 13.535 10.09 14.195 9.75 14.875 C7.68359375 15.5078125 7.68359375 15.5078125 5.1875 16 C4.36121094 16.16757812 3.53492188 16.33515625 2.68359375 16.5078125 C2.04550781 16.62898438 1.40742187 16.75015625 0.75 16.875 C0.110625 15.823125 -0.52875 14.77125 -1.1875 13.6875 C-4.75271388 8.67994889 -9.81979907 5.71787986 -15.76171875 4.2578125 C-22.56737698 3.21078816 -29.19306616 3.24629639 -35.25 6.875 C-38.36884032 10.22204814 -39.21712806 11.92171366 -39.375 16.5 C-37.91166713 20.88999861 -36.20792265 21.58844973 -32.25 23.875 C-30.00298527 24.75730945 -27.72147595 25.55526359 -25.41796875 26.27734375 C-24.46389885 26.58400719 -24.46389885 26.58400719 -23.49055481 26.89686584 C-20.80363714 27.7602409 -18.11008003 28.60195816 -15.41674805 29.44506836 C6.58075368 36.37035663 6.58075368 36.37035663 12 46.125 C13.82163081 52.80431298 13.15394665 58.61585533 10.0703125 64.8046875 C5.66047857 71.71951585 -1.78474847 75.49951723 -9.578125 77.4609375 C-21.50868282 79.30982512 -32.54446039 78.11293165 -42.5625 71.0625 C-48.11958988 66.54167073 -52.46235914 61.53436429 -55.25 54.875 C-55.25 54.215 -55.25 53.555 -55.25 52.875 C-51.95 51.885 -48.65 50.895 -45.25 49.875 C-44.92128906 50.52726562 -44.59257813 51.17953125 -44.25390625 51.8515625 C-40.28437535 59.14517212 -35.99689736 63.64550686 -28.17578125 66.6796875 C-20.19988426 68.96746935 -12.6798334 68.46962416 -5.25 64.875 C-1.12113939 61.34826489 0.59258347 59.47540136 1.125 54.0625 C1.3689868 50.74299537 0.78501165 49.91775645 -1.38671875 47.265625 C-4.41409145 44.73799595 -6.70709981 43.65422551 -10.4375 42.4375 C-12.27634766 41.81875 -12.27634766 41.81875 -14.15234375 41.1875 C-16.26435814 40.50537154 -18.37951137 39.83424093 -20.49658203 39.16796875 C-43.88897951 31.80214542 -43.88897951 31.80214542 -48.875 24.75 C-51.20068542 19.77746308 -50.9713992 14.20740436 -50.25 8.875 C-47.33334632 2.57502806 -41.70232135 -2.4117807 -35.25 -5 C-23.17971272 -8.46633891 -10.46671741 -6.70305379 0 0 Z " fill="#000000" transform="translate(849.25,6.125)"/>
<path d="M0 0 C3.3 0 6.6 0 10 0 C10 11.55 10 23.1 10 35 C25.18 35 40.36 35 56 35 C56 23.45 56 11.9 56 0 C59.3 0 62.6 0 66 0 C66 26.73 66 53.46 66 81 C62.7 81 59.4 81 56 81 C56 69.12 56 57.24 56 45 C40.82 45 25.64 45 10 45 C10 56.88 10 68.76 10 81 C6.7 81 3.4 81 0 81 C0 54.27 0 27.54 0 0 Z " fill="#000000" transform="translate(473,1)"/>
<path d="M0 0 C3.3 0 6.6 0 10 0 C10.01458252 1.55315918 10.02916504 3.10631836 10.04418945 4.70654297 C10.10243092 10.50283115 10.17966218 16.29874133 10.26245117 22.09472656 C10.29557919 24.59694251 10.32364833 27.09923101 10.34643555 29.6015625 C10.38020452 33.21125019 10.43253274 36.82028024 10.48828125 40.4296875 C10.49467117 41.53738495 10.5010611 42.6450824 10.50764465 43.78634644 C10.6555404 51.70890806 11.62393593 58.95189085 15.6875 65.875 C22.32637861 71.97559115 28.47951574 72.64486969 37.42578125 72.38671875 C43.45079725 71.73483177 47.07206814 69.92793186 51.3125 65.6875 C56.1016998 58.06025587 56.46384501 51.97299743 56.51171875 43.06640625 C56.52966995 41.83333237 56.54762115 40.60025848 56.56611633 39.32981873 C56.62011955 35.4074135 56.65408421 31.4851293 56.6875 27.5625 C56.71905677 24.89643863 56.75517204 22.23046315 56.79101562 19.56445312 C56.8758406 13.04307728 56.94423291 6.52168559 57 0 C60.3 0 63.6 0 67 0 C67.09316446 7.5198085 67.16399844 15.03955626 67.20724869 22.55981255 C67.22801927 26.05277947 67.25614006 29.54534814 67.30175781 33.03808594 C67.35400946 37.06448939 67.37303198 41.09048227 67.390625 45.1171875 C67.41127014 46.35612762 67.43191528 47.59506775 67.45318604 48.87155151 C67.45570132 58.69936857 65.64355398 67.11888063 58.76171875 74.46875 C50.44331076 81.69894054 40.96058163 83.45650103 30.2421875 83.24609375 C21.04511381 82.54800261 12.94632181 79.03266658 6.43359375 72.40625 C-0.21152589 63.99571051 -0.42597459 53.82135435 -0.29296875 43.5546875 C-0.28872391 42.30366241 -0.28447906 41.05263733 -0.28010559 39.76370239 C-0.26625204 36.47237125 -0.23940206 33.18149918 -0.20599365 29.89031982 C-0.1750482 26.51808222 -0.16154853 23.14577682 -0.14648438 19.7734375 C-0.1135554 13.18211536 -0.0634617 6.59109514 0 0 Z " fill="#000000" transform="translate(694,1)"/>
<path d="M0 0 C18.81 0 37.62 0 57 0 C57 3.3 57 6.6 57 10 C41.49 10 25.98 10 10 10 C10 18.91 10 27.82 10 37 C23.53 37 37.06 37 51 37 C51 39.97 51 42.94 51 46 C37.47 46 23.94 46 10 46 C10 57.55 10 69.1 10 81 C6.7 81 3.4 81 0 81 C0 54.27 0 27.54 0 0 Z " fill="#000000" transform="translate(1163,1)"/>
</svg>
